{"title":"Boxcar Bertha","uid":9652293,"size":4406470440,"categoryP":"video","categoryS":"movies","magnet":"?xt=urn:btih:ac1b70dcf1469dbc3a234170f3ae25f52b55f6b9&amp;dn=Boxcar+Bertha&amp;tr=udp%3A%2F%2Ftracker.openbittorrent.com%3A80&amp;tr=udp%3A%2F%2Fopen.demonii.com%3A1337&amp;tr=udp%3A%2F%2Ftracker.coppersurfer.tk%3A6969&amp;tr=udp%3A%2F%2Fexodus.desync.com%3A6969","seeders":1,"leechers":7,"uploader":"Isaac09","files":-1,"time":1393097106,"description":"Mkv Ripped directly from the Dvd, which is the highest quality the movie was released.\n\nGeneral\nUnique ID                                : 84846455351797699830157842631336526890 (0x3FD4D5392D8522732DC055BD1D52042A)\nComplete name                            : H:VideosCinemaBoxcar BerthaBoxcar Bertha.mkv\nFormat                                   : Matroska\nFormat version                           : Version 2\nFile size                                : 4.10 GiB\nDuration                                 : 1h 24mn\nOverall bit rate mode                    : Variable\nOverall bit rate                         : 6 938 Kbps\nEncoded date                             : UTC 2014-02-22 17:21:22\nWriting application                      : MakeMKV v1.8.8 win(x64-release)\nWriting library                          : libmakemkv v1.8.8 (1.3.0/1.4.1) win(x64-release)\n\nVideo\nID                                       : 1\nFormat                                   : MPEG Video\nFormat version                           : Version 2\nFormat profile                           : Main@Main\nFormat settings, BVOP                    : No\nFormat settings, Matrix                  : Custom\nCodec ID                                 : V_MPEG2\nCodec ID/Info                            : MPEG 1 or 2 Video\nDuration                                 : 1h 24mn\nBit rate mode                            : Variable\nBit rate                                 : 6 032 Kbps\nMaximum bit rate                         : 8 500 Kbps\nWidth                                    : 720 pixels\nHeight                                   : 576 pixels\nDisplay aspect ratio                     : 16:9\nOriginal display aspect ratio            : 2.40:1\nFrame rate mode                          : Constant\nFrame rate                               : 25.000 fps\nStandard                                 : PAL\nColor space                              : YUV\nChroma subsampling                       : 4:2:0\nBit depth                                : 8 bits\nScan type                                : Interlaced\nScan order                               : Top Field First\nCompression mode                         : Lossy\nBits/(Pixel*Frame)                       : 0.582\nTime code of first frame                 : 00:59:58:00\nTime code source                         : Group of pictures header\nStream size                              : 3.57 GiB (87%)\nLanguage                                 : English\nDefault                                  : No\nForced                                   : No\n\nAudio #1\nID                                       : 2\nFormat                                   : AC-3\nFormat/Info                              : Audio Coding 3\nMode extension                           : CM (complete main)\nFormat settings, Endianness              : Big\nCodec ID                                 : A_AC3\nDuration                                 : 1h 24mn\nBit rate mode                            : Constant\nBit rate                                 : 192 Kbps\nChannel count                            : 2 channels\nChannel positions                        : Front: L R\nSampling rate                            : 48.0 KHz\nBit depth                                : 16 bits\nCompression mode                         : Lossy\nStream size                              : 116 MiB (3%)\nTitle                                    : Stereo\nLanguage                                 : English\nDefault                                  : No\nForced                                   : No\n\nAudio #2\nID                                       : 3\nFormat                                   : AC-3\nFormat/Info                              : Audio Coding 3\nMode extension                           : CM (complete main)\nFormat settings, Endianness              : Big\nCodec ID                                 : A_AC3\nDuration                                 : 1h 24mn\nBit rate mode                            : Constant\nBit rate                                 : 192 Kbps\nChannel count                            : 2 channels\nChannel positions                        : Front: L R\nSampling rate                            : 48.0 KHz\nBit depth                                : 16 bits\nCompression mode                         : Lossy\nStream size                              : 116 MiB (3%)\nTitle                                    : Stereo\nLanguage                                 : German\nDefault                                  : No\nForced                                   : No\n\nAudio #3\nID                                       : 4\nFormat                                   : AC-3\nFormat/Info                              : Audio Coding 3\nMode extension                           : CM (complete main)\nFormat settings, Endianness              : Big\nCodec ID                                 : A_AC3\nDuration                                 : 1h 24mn\nBit rate mode                            : Constant\nBit rate                                 : 192 Kbps\nChannel count                            : 2 channels\nChannel positions                        : Front: L R\nSampling rate                            : 48.0 KHz\nBit depth                                : 16 bits\nCompression mode                         : Lossy\nStream size                              : 116 MiB (3%)\nTitle                                    : Stereo\nLanguage                                 : French\nDefault                                  : No\nForced                                   : No\n\nAudio #4\nID                                       : 5\nFormat                                   : AC-3\nFormat/Info                              : Audio Coding 3\nMode extension                           : CM (complete main)\nFormat settings, Endianness              : Big\nCodec ID                                 : A_AC3\nDuration                                 : 1h 24mn\nBit rate mode                            : Constant\nBit rate                                 : 192 Kbps\nChannel count                            : 2 channels\nChannel positions                        : Front: L R\nSampling rate                            : 48.0 KHz\nBit depth                                : 16 bits\nCompression mode                         : Lossy\nStream size                              : 116 MiB (3%)\nTitle                                    : Stereo\nLanguage                                 : Russian\nDefault                                  : No\nForced                                   : No\n\nText #1\nID                                       : 6\nFormat                                   : VobSub\nCodec ID                                 : S_VOBSUB\nCodec ID/Info                            : The same subtitle format used on DVDs\nLanguage                                 : English\nDefault                                  : No\nForced                                   : No\n\nText #2\nID                                       : 7\nFormat                                   : VobSub\nCodec ID                                 : S_VOBSUB\nCodec ID/Info                            : The same subtitle format used on DVDs\nLanguage                                 : French\nDefault                                  : No\nForced                                   : No\n\nText #3\nID                                       : 8\nFormat                                   : VobSub\nCodec ID                                 : S_VOBSUB\nCodec ID/Info                            : The same subtitle format used on DVDs\nLanguage                                 : Dutch\nDefault                                  : No\nForced                                   : No\n\nText #4\nID                                       : 9\nFormat                                   : VobSub\nCodec ID                                 : S_VOBSUB\nCodec ID/Info                            : The same subtitle format used on DVDs\nLanguage                                 : Swedish\nDefault                                  : No\nForced                                   : No\n\nText #5\nID                                       : 10\nFormat                                   : VobSub\nCodec ID                                 : S_VOBSUB\nCodec ID/Info                            : The same subtitle format used on DVDs\nLanguage                                 : Finnish\nDefault                                  : No\nForced                                   : No\n\nText #6\nID                                       : 11\nFormat                                   : VobSub\nCodec ID                                 : S_VOBSUB\nCodec ID/Info                            : The same subtitle format used on DVDs\nLanguage                                 : Portuguese\nDefault                                  : No\nForced                                   : No\n\nText #7\nID                                       : 12\nFormat                                   : VobSub\nCodec ID                                 : S_VOBSUB\nCodec ID/Info                            : The same subtitle format used on DVDs\nLanguage                                 : Polish\nDefault                                  : No\nForced                                   : No\n\nText #8\nID                                       : 13\nFormat                                   : VobSub\nCodec ID                                 : S_VOBSUB\nCodec ID/Info                            : The same subtitle format used on DVDs\nLanguage                                 : Greek\nDefault                                  : No\nForced                                   : No\n\nMenu\n00:00:00.000                             : en:Chapter 01\n00:06:04.800                             : en:Chapter 02\n00:11:35.520                             : en:Chapter 03\n00:19:56.480                             : en:Chapter 04\n00:25:40.800                             : en:Chapter 05\n00:30:02.840                             : en:Chapter 06\n00:36:05.720                             : en:Chapter 07\n00:39:21.920                             : en:Chapter 08\n00:45:21.120                             : en:Chapter 09\n00:50:27.120                             : en:Chapter 10\n00:54:39.800                             : en:Chapter 11\n00:59:06.600                             : en:Chapter 12\n01:05:29.400                             : en:Chapter 13\n01:11:45.120                             : en:Chapter 14\n01:14:22.480                             : en:Chapter 15\n01:18:49.600                             : en:Chapter 16\n\n","torrent":{"xt":"urn:btih:ac1b70dcf1469dbc3a234170f3ae25f52b55f6b9","amp;dn":"Boxcar+Bertha","amp;tr":["udp%3A%2F%2Ftracker.openbittorrent.com%3A80","udp%3A%2F%2Fopen.demonii.com%3A1337","udp%3A%2F%2Ftracker.coppersurfer.tk%3A6969","udp%3A%2F%2Fexodus.desync.com%3A6969"],"infoHash":"ac1b70dcf1469dbc3a234170f3ae25f52b55f6b9","infoHashBuffer":{"type":"Buffer","data":[172,27,112,220,241,70,157,188,58,35,65,112,243,174,37,245,43,85,246,185]},"announce":[],"urlList":[]}}